# xmcd
#
# Track frame offsets: 
#        150
#        11562
#        23617
#        36933
#        49472
#        60982
#        73776
#        86559
#        96995
#        108073
#        119828
#        131522
#        141920
#        153347
#        165675
#        178006
#        189615
#        203650
#        217954
#        228689
#        242419
#        255265
#        268501
#        281359
#        295787
#        309727
#
# Disc length: 4268 seconds
#
# Revision: 0
# Processed by: cddbd v1.5.2PL0 Copyright (c) Steve Scherf et al.
# Submitted via: ExactAudioCopy v0.99pb5
#
DISCID=7310aa1a
DTITLE=Ray Charles - Black Jack CD1
DYEAR=2008
DGENRE=Blues
TTITLE0=Confession Blues
TTITLE1=I Love You, I Love You
TTITLE2=Alone In This City
TTITLE3=Rockin' Chair Blues
TTITLE4=Let's Have A Ball
TTITLE5=Can Anyone Ask For More ?
TTITLE6=Blues Before Sunrise
TTITLE7=Ain't That Fine
TTITLE8=A Sentimental Blues
TTITLE9=How Long Blues
TTITLE10=See See Rider
TTITLE11=Sittin' On Top Of The World
TTITLE12=She's On The Ball
TTITLE13=Honey Honey
TTITLE14=I've Had My Fun
TTITLE15=What Have I Done ?
TTITLE16=Late In The Evening Blues
TTITLE17=Someday
TTITLE18=Th' Ego Song
TTITLE19=Baby Let Me Hold Your Hand
TTITLE20=Lonely Boy
TTITLE21=Baby Won't You Please Come Home
TTITLE22=The Snow Is Falling
TTITLE23=Kissa Me Baby
TTITLE24=Misery In My Heart
TTITLE25=Hey Now
EXTD=
EXTT0=
EXTT1=
EXTT2=
EXTT3=
EXTT4=
EXTT5=
EXTT6=
EXTT7=
EXTT8=
EXTT9=
EXTT10=
EXTT11=
EXTT12=
EXTT13=
EXTT14=
EXTT15=
EXTT16=
EXTT17=
EXTT18=
EXTT19=
EXTT20=
EXTT21=
EXTT22=
EXTT23=
EXTT24=
EXTT25=
PLAYORDER=
